Coordinates
version=1
nRows=26
nColumns=24
inDegrees=yes

Units are S.I. units (second, meters, Newtons, ...)
Angles are in degrees.

endheader
time	pelvis_tilt	pelvis_list	pelvis_rotation	pelvis_tx	pelvis_ty	pelvis_tz	hip_flexion_r	hip_adduction_r	hip_rotation_r	knee_angle_r	ankle_angle_r	subtalar_angle_r	mtp_angle_r	hip_flexion_l	hip_adduction_l	hip_rotation_l	knee_angle_l	ankle_angle_l	subtalar_angle_l	mtp_angle_l	lumbar_extension	lumbar_bending	lumbar_rotation
      8.01000000	     -8.66919437	     -6.41879719	      9.15884202	     -1.60723989	     -0.02434364	      0.65650157	     26.57938206	      4.34096735	     -1.42335883	    -30.32874227	      3.30365745	     -4.79456834	     12.28613459	     20.40722967	     -3.98296982	      2.29915908	    -65.56336339	    -23.76723815	      8.80091888	     34.71505771	      7.41688493	     13.25940104	     -7.32263985
      8.01500000	     -8.56334834	     -6.35132878	      8.90747818	     -1.60030725	     -0.02298786	      0.65687813	     25.73176039	      4.51303481	     -1.12170663	    -29.80758733	      3.50777036	     -4.81951661	     12.15639176	     21.23310260	     -3.95675146	      1.85528591	    -66.39989264	    -22.86811820	      8.78050554	     34.90432140	      7.25027258	     13.24491466	     -6.84915467
      8.02000000	     -8.53118255	     -6.37056478	      8.74396306	     -1.59334931	     -0.02177675	      0.65706958	     24.95144326	      4.69529948	     -0.96364033	    -29.25138622	      3.75027045	     -4.75723012	     11.87175995	     22.18748046	     -3.97392035	      1.50239293	    -67.24487008	    -22.01649924	      8.48247370	     34.24663428	      7.22231874	     13.29865817	     -6.51777307
      8.02500000	     -8.51346305	     -6.37959777	      8.56265595	     -1.58643773	     -0.02060776	      0.65729874	     24.18161307	      4.86613848	     -0.79130419	    -28.67557554	      3.93383993	     -4.72751678	     11.75989702	     23.14385733	     -3.99134300	      1.12920011	    -67.99811719	    -21.41746867	      7.91162490	     33.50830257	      7.19788771	     13.33816772	     -6.17163378
      8.03000000	     -8.48431394	     -6.41025161	      8.43086021	     -1.57960262	     -0.01944564	      0.65749004	     23.39648739	      5.03710342	     -0.67826676	    -28.07064204	      4.04078785	     -4.76861216	     11.69597211	     24.08910517	     -4.00986084	      0.82830924	    -68.63755175	    -21.16444293	      7.04046432	     33.11661100	      7.16379507	     13.39110106	     -5.85459017
      8.03500000	     -8.48189163	     -6.40436099	      8.20716756	     -1.57264695	     -0.01838913	      0.65773808	     22.62398627	      5.19587104	     -0.44532823	    -27.47178204	      4.24998866	     -4.68929985	     11.61228036	     25.02589658	     -4.03880935	      0.38505081	    -69.27839389	    -20.52956003	      6.18122022	     31.27696539	      7.15504175	     13.41632669	     -5.51307671
      8.04000000	     -8.47675594	     -6.40234359	      8.07186684	     -1.56578024	     -0.01733255	      0.65798090	     21.84123966	      5.34005838	     -0.25591929	    -26.83886654	      4.35043900	     -4.83044386	     11.50180905	     25.95077995	     -4.03505537	      0.05990660	    -69.74733557	    -20.36405927	      5.05956755	     30.54755443	      7.15312847	     13.41571373	     -5.28062902
      8.04500000	     -8.47133023	     -6.39913728	      7.83834292	     -1.55892472	     -0.01637652	      0.65823174	     21.07401392	      5.49270265	     -0.02173311	    -26.24184161	      4.53194577	     -4.75220950	     11.34338597	     26.85475990	     -4.07063863	     -0.36370074	    -70.22775482	    -19.73236447	      4.10266217	     28.57593773	      7.11738494	     13.44752501	     -4.86117021
      8.05000000	     -8.47937759	     -6.37325561	      7.64356176	     -1.55208088	     -0.01545153	      0.65851498	     20.31199213	      5.61972075	      0.23833000	    -25.63003422	      4.65600815	     -4.83444158	     11.15674558	     27.74305359	     -4.06997956	     -0.73419549	    -70.56597220	    -19.27752991	      3.09594384	     27.23360401	      7.10091281	     13.43254415	     -4.52689442
      8.05500000	     -8.48895125	     -6.32494098	      7.43218020	     -1.54522845	     -0.01456902	      0.65882168	     19.55240641	      5.72424044	      0.51370361	    -25.02603436	      4.77191776	     -4.91821242	     10.96130303	     28.59572617	     -4.05870327	     -1.11304000	    -70.81210649	    -18.71373947	      2.19604164	     25.87235191	      7.07862453	     13.39304613	     -4.18231355
      8.06000000	     -8.51341319	     -6.28744032	      7.25911528	     -1.53842729	     -0.01373291	      0.65911442	     18.81372016	      5.82120481	      0.73539619	    -24.41053070	      4.81142143	     -5.07150914	     10.84226611	     29.44389192	     -4.03859510	     -1.40611212	    -70.91599810	    -18.40674772	      1.30079091	     25.48532720	      7.07278550	     13.35463110	     -3.86607111
      8.06500000	     -8.50971347	     -6.16305345	      6.98438183	     -1.53160972	     -0.01297720	      0.65951866	     18.04959965	      5.86954979	      1.15258815	    -23.85311311	      5.00864510	     -5.12806463	     10.57731358	     30.21249564	     -3.99542912	     -1.84671534	    -71.03901285	    -17.39419382	      0.77207063	     23.44385820	      6.99527861	     13.23771539	     -3.46679688
      8.07000000	     -8.56855711	     -6.05986565	      6.75525458	     -1.52483694	     -0.01228526	      0.65991394	     17.36029458	      5.90726483	      1.47027993	    -23.27760125	      5.07502195	     -5.27321612	     10.46833874	     31.02392123	     -3.94640535	     -2.17912674	    -70.96452313	    -17.00402226	      0.09313108	     23.17408366	      6.99464715	     13.12040764	     -3.10652929
      8.07500000	     -8.54422074	     -5.90502659	      6.49401182	     -1.51803382	     -0.01158802	      0.66035500	     16.57240507	      5.91812624	      1.90059888	    -22.71908426	      5.24125699	     -5.40216333	     10.08654891	     31.70466993	     -3.88203659	     -2.55796522	    -70.88402414	    -16.03883140	     -0.20648000	     21.63356672	      6.88445755	     12.95840503	     -2.72823228
      8.08000000	     -8.62985348	     -5.75210266	      6.20023538	     -1.51134131	     -0.01107586	      0.66083262	     15.93783852	      5.90529776	      2.29109181	    -22.19889837	      5.36552763	     -5.49641553	      9.97821115	     32.48140665	     -3.82624575	     -2.92427734	    -70.65169476	    -15.59719341	     -0.68618250	     21.43482130	      6.87310716	     12.79177014	     -2.29273735
      8.08500000	     -8.65562520	     -5.55327382	      5.88506822	     -1.50462304	     -0.01053327	      0.66138653	     15.22413439	      5.86588887	      2.77566476	    -21.66832740	      5.48173572	     -5.67984854	      9.74114749	     33.14515883	     -3.75898018	     -3.30858018	    -70.33745917	    -15.01676556	     -0.96311802	     21.00476682	      6.78475752	     12.57449320	     -1.83738808
      8.09000000	     -8.66735652	     -5.36391525	      5.57553528	     -1.49792759	     -0.01005959	      0.66191091	     14.49889714	      5.82407592	      3.25126371	    -21.14209613	      5.62815556	     -5.81905935	      9.42601902	     33.77814856	     -3.70789370	     -3.67964261	    -69.96217519	    -14.39430683	     -1.19324470	     20.39555059	      6.67980536	     12.36724723	     -1.40239309
      8.09500000	     -8.62372601	     -5.25956415	      5.34561382	     -1.49128546	     -0.00967949	      0.66224659	     13.71534209	      5.83924869	      3.64883572	    -20.60977596	      5.88478667	     -5.81847319	      8.77403467	     34.38537925	     -3.69790178	     -3.95196730	    -69.60296318	    -13.53299142	     -1.35647422	     18.92487972	      6.53471527	     12.25403251	     -1.06422785
      8.10000000	     -8.71506013	     -5.02808290	      5.04057641	     -1.48462703	     -0.00942170	      0.66275787	     13.09824722	      5.71034122	      4.01032195	    -20.11589325	      6.03933215	     -5.88984729	      8.64613104	     35.04481276	     -3.59989663	     -4.28833799	    -69.04138246	    -13.04497436	     -1.47998210	     18.69226324	      6.51347804	     11.98126626	     -0.67736180
      8.10500000	     -8.64662195	     -4.87471082	      4.78456428	     -1.47798850	     -0.00910798	      0.66315633	     12.27952639	      5.67129972	      4.46306692	    -19.57019297	      6.24723992	     -5.96666080	      8.06360037	     35.54991955	     -3.57817199	     -4.58808667	    -68.49399222	    -12.24594178	     -1.57130647	     17.28582497	      6.32994792	     11.80667617	     -0.36408274
      8.11000000	     -8.69983012	     -4.69046540	      4.43273550	     -1.47144563	     -0.00899451	      0.66366433	     11.63466730	      5.58250265	      4.89634022	    -19.07937940	      6.43225637	     -5.94107688	      7.94435518	     36.14206154	     -3.56837092	     -4.92198949	    -67.81256119	    -11.79816339	     -1.68567953	     16.90977969	      6.24332695	     11.60094264	      0.08912222
      8.11500000	     -8.72313855	     -4.46105578	      4.14629515	     -1.46485008	     -0.00888359	      0.66413230	     10.94645462	      5.43221887	      5.24799896	    -18.57392853	      6.58003537	     -6.04150759	      7.76611806	     36.66028214	     -3.48294496	     -5.20451812	    -67.03284696	    -11.31286204	     -1.71357180	     16.46117764	      6.14204790	     11.32440803	      0.45452915
      8.12000000	     -8.64023706	     -4.33673948	      3.92608019	     -1.45828929	     -0.00880612	      0.66438723	     10.12578100	      5.37451417	      5.62644333	    -18.03529822	      6.80827054	     -6.03871856	      7.22619232	     37.10077849	     -3.46395470	     -5.41476199	    -66.30061163	    -10.47562846	     -1.72390009	     14.67273611	      5.94433979	     11.17371826	      0.68744685
      8.12500000	     -8.68831845	     -4.16280004	      3.59943646	     -1.45178471	     -0.00890901	      0.66481257	      9.48991971	      5.25749833	      5.99152501	    -17.55488405	      6.98196940	     -5.99964760	      7.18808730	     37.61750964	     -3.45400424	     -5.66527974	    -65.39992382	    -10.11104152	     -1.78022109	     14.36519804	      5.85815217	     10.96867115	      1.08262474
      8.13000000	     -8.68163072	     -3.96936168	      3.34512229	     -1.44520096	     -0.00899515	      0.66518564	      8.77837427	      5.11042563	      6.27813100	    -17.04892798	      7.10632973	     -6.08857556	      7.09045194	     38.03770126	     -3.38987519	     -5.85312243	    -64.41556098	     -9.69686501	     -1.78747623	     13.95207746	      5.73647523	     10.72097252	      1.36811167
      8.13500000	     -8.58355057	     -3.83674655	      3.07768433	     -1.43868835	     -0.00908594	      0.66548038	      7.96042067	      5.02327895	      6.68092274	    -16.52101065	      7.25136372	     -6.11197906	      6.95716780	     38.36022537	     -3.39185912	     -6.01060176	    -63.41457999	     -9.21207365	     -1.81739236	     13.12181953	      5.50233479	     10.55979193	      1.67041962
